<svg id="Layer_1" data-name="Layer 1" xmlns="http://www.w3.org/2000/svg" viewBox="0 0 1139.46 266.99"><defs><style>.cls-1{fill:#fff;}.cls-2{fill:#ea3644;}</style></defs><path class="cls-1" d="M533.28,186.27l-55.54-41.18a3.27,3.27,0,0,1,0-5.25l55.52-41.11a3.26,3.26,0,0,0-1.94-5.88H502a3.28,3.28,0,0,0-1.93.63l-43.05,31.57a3.26,3.26,0,0,1-5.19-2.63V96.11a3.27,3.27,0,0,0-3.27-3.26H425.3A3.26,3.26,0,0,0,422,96.11v60.06q-2-8-9.37-14.58a35.09,35.09,0,0,0-24.16-9H342.32a9.41,9.41,0,0,1-6.26-2.26,6.73,6.73,0,0,1-2.62-5.23,6.53,6.53,0,0,1,2.62-5.17,9.47,9.47,0,0,1,6.26-2.26H412.1a3.26,3.26,0,0,0,3.26-3.26V96.11a3.26,3.26,0,0,0-3.26-3.26H337.88a35,35,0,0,0-24.16,9q-10.11,8.94-10.11,20.73t10.11,20.81a35.09,35.09,0,0,0,24.16,9h46.2a9.41,9.41,0,0,1,6.25,2.26,6.46,6.46,0,0,1,2.7,5.16,6.68,6.68,0,0,1-2.7,5.24,9.45,9.45,0,0,1-6.25,2.25H314.29a3.27,3.27,0,0,0-3.26,3.27v18.28a3.26,3.26,0,0,0,3.26,3.26h74.22a35.41,35.41,0,0,0,24.16-8.94q7.38-6.6,9.37-14.69v20.37a3.26,3.26,0,0,0,3.26,3.26h23.3a3.27,3.27,0,0,0,3.27-3.26V162.58a3.26,3.26,0,0,1,5.19-2.63l43.05,31.57a3.28,3.28,0,0,0,1.93.63h29.29A3.26,3.26,0,0,0,533.28,186.27Z" transform="translate(-8.77 -9.01)"/><path class="cls-1" d="M630.32,167.34H569.84a3.26,3.26,0,0,1-3.26-3.26v-68a3.26,3.26,0,0,0-3.26-3.26H540a3.26,3.26,0,0,0-3.26,3.26v92.78a3.26,3.26,0,0,0,3.26,3.26h90.31a3.26,3.26,0,0,0,3.27-3.26V170.61A3.27,3.27,0,0,0,630.32,167.34Z" transform="translate(-8.77 -9.01)"/><rect class="cls-1" x="630.04" y="83.84" width="29.83" height="99.31" rx="3.26"/><path class="cls-1" d="M1137.32,102q-10.92-9.17-26.34-9.16h-78.66a3.26,3.26,0,0,0-3.26,3.26v20.34q-2-8.06-9.37-14.58a35,35,0,0,0-24.15-9H947.88q-15.42,0-26.33,9.16-8.91,7.42-10.54,17.26-1.65-9.84-10.54-17.26-10.92-9.17-26.34-9.16H795.47a3.26,3.26,0,0,0-3.26,3.26v21.35Q790.11,108.75,782,102q-10.9-9.17-26.34-9.16H677.05a3.26,3.26,0,0,0-3.27,3.26v92.78a3.26,3.26,0,0,0,3.27,3.26h23.3a3.26,3.26,0,0,0,3.26-3.26V170.61a3.27,3.27,0,0,1,3.26-3.27H755.7q15.28,0,26.34-9.09,8.07-6.78,10.17-15.55v46.19a3.26,3.26,0,0,0,3.26,3.26h23.31a3.26,3.26,0,0,0,3.26-3.26V170.61a3.27,3.27,0,0,1,3.26-3.27h48.83q15.27,0,26.34-9.09,8.07-6.78,10.16-15.55v18.39q0,12.81,10.92,22t26.33,9.09h71.24a3.26,3.26,0,0,0,3.26-3.26V170.61a3.27,3.27,0,0,0-3.26-3.27H949.34a9.48,9.48,0,0,1-6.26-2.25,6.77,6.77,0,0,1-2.62-5.24v-4.16a3.26,3.26,0,0,1,3.27-3.26h51.81a35.06,35.06,0,0,0,24.15-9q7.38-6.58,9.37-14.65v60.13a3.26,3.26,0,0,0,3.26,3.26h23.31a3.26,3.26,0,0,0,3.26-3.26V173.31a3.26,3.26,0,0,1,5-2.75l32.88,21.08a3.22,3.22,0,0,0,1.76.51H1129a3.26,3.26,0,0,0,1.67-6.06l-21.31-12.68a3.27,3.27,0,0,1,1.67-6.07q15.29,0,26.34-9.09t10.91-22V123.84Q1148.23,111.1,1137.32,102ZM763.2,133.85a7.59,7.59,0,0,1-3.06,6.13,11.52,11.52,0,0,1-7.42,2.56H706.87a3.26,3.26,0,0,1-3.26-3.27V120.92a3.26,3.26,0,0,1,3.26-3.27h45.85a11.57,11.57,0,0,1,7.42,2.56,7.73,7.73,0,0,1,3.06,6.13Zm118.42,0a7.61,7.61,0,0,1-3,6.13,11.54,11.54,0,0,1-7.42,2.56H825.3a3.26,3.26,0,0,1-3.26-3.27V120.92a3.26,3.26,0,0,1,3.26-3.27h45.85a11.59,11.59,0,0,1,7.42,2.56,7.75,7.75,0,0,1,3,6.13Zm115.85-3.39a9.38,9.38,0,0,1-6.37,2.11H943.73a3.26,3.26,0,0,1-3.27-3.26v-4.23a6.56,6.56,0,0,1,2.62-5.17,9.48,9.48,0,0,1,6.26-2.26H991.1a9.52,9.52,0,0,1,6.37,2.08,6.7,6.7,0,0,1,2.43,5.35A6.81,6.81,0,0,1,997.47,130.46Zm121,3.39a7.58,7.58,0,0,1-3,6.13,11.54,11.54,0,0,1-7.42,2.56h-45.85a3.26,3.26,0,0,1-3.26-3.27V120.92a3.26,3.26,0,0,1,3.26-3.27H1108a11.59,11.59,0,0,1,7.42,2.56,7.72,7.72,0,0,1,3,6.13Z" transform="translate(-8.77 -9.01)"/><path class="cls-2" d="M8.91,117.12c-.05.22-.1.43-.14.65V28.65a19.6,19.6,0,0,1,29.41-17L104.57,50,25.17,95.6s-1.44.75-2.09,1.19c-.5.33-1,.69-1.46,1l-.32.25c-.47.36-.92.71-1.35,1.09a1,1,0,0,0-.22.19c-.39.33-.77.67-1.13,1l-.29.26c-.4.4-.78.79-1.17,1.2l-.27.29c-.33.37-.66.74-1,1.12-.07.08-.12.15-.19.22-.35.43-.68.87-1,1.31-.09.11-.18.24-.26.35q-.49.68-1,1.38l0,.09q-.45.68-.84,1.38a2.33,2.33,0,0,0-.2.34c-.29.49-.55,1-.8,1.47,0,.08-.08.16-.11.23-.22.47-.44.92-.64,1.39a1.69,1.69,0,0,0-.12.28c-.23.52-.43,1-.63,1.57l-.1.27c-.19.53-.37,1.06-.53,1.6a.11.11,0,0,0,0,.06c-.17.57-.33,1.15-.47,1.72A1.66,1.66,0,0,1,8.91,117.12Z" transform="translate(-8.77 -9.01)"/><path class="cls-2" d="M156.75,125.93l-148,85.45V132.61a33.64,33.64,0,0,0,3.35,8.91c.12.23.24.45.38.68s.25.45.39.67a34.42,34.42,0,0,0,7.29,8.52s0,0,0,0c.49.41,1,.79,1.5,1.17l.26.2c.5.36,1,.72,1.54,1.05l.17.12q.83.51,1.65,1h0c.6.34,1.19.65,1.78.93l.06,0,.06,0a35.8,35.8,0,0,0,3.62,1.5l.09,0c.62.21,1.24.41,1.86.59l.08,0a32.74,32.74,0,0,0,3.81.84l.17,0a34.9,34.9,0,0,0,3.84.37h.18c.63,0,1.27,0,1.9,0h.14c.63,0,1.27,0,1.9-.08,0,0,.05,0,.06,0,.63,0,1.27-.12,1.91-.21a1.6,1.6,0,0,0,.23,0,33.11,33.11,0,0,0,3.77-.76l.27-.07c.61-.16,1.21-.34,1.82-.55a.68.68,0,0,0,.2-.07c.58-.2,1.14-.41,1.7-.63l.2-.07c.59-.24,1.16-.49,1.74-.77l.34-.16.68-.33,1-.57.38-.21h0l86.1-49.45a11.78,11.78,0,0,1,11.47,20.57Z" transform="translate(-8.77 -9.01)"/><path class="cls-2" d="M36.3,115l90.64-52.06L163,83.7c-.77-.3-1.54-.55-2.32-.78l-.21-.07c-.58-.15-1.15-.31-1.73-.45h-.06c-.54-.14-1.1-.25-1.65-.35l-.28-.05c-.55-.1-1.11-.18-1.68-.25a1.55,1.55,0,0,0-.31,0c-.49-.06-1-.11-1.51-.14l-.25,0c-.57,0-1.11-.06-1.67-.06h-.4c-.54,0-1.07,0-1.62,0h-.1c-.56,0-1.11.08-1.68.14l-.42,0c-.55,0-1.09.13-1.64.21l-.29,0c-.49.09-1,.18-1.46.29l-.39.08c-.54.13-1.08.25-1.62.41l-.37.11c-.48.14-1,.3-1.46.46l-.27.09c-.53.19-1.07.4-1.61.62l-.38.16c-.42.17-.84.36-1.26.56l-.37.17c-.72.34-2.1,1.2-2.1,1.2L47.28,135.83a11.77,11.77,0,0,1-11-20.82h0Z" transform="translate(-8.77 -9.01)"/><path class="cls-2" d="M235.4,159.48,38.18,273.34a19.6,19.6,0,0,1-29.41-17V237.26l159.1-91.94a3.84,3.84,0,0,0,.39-.22c.55-.33,1.1-.68,1.63-1l.31-.21c.53-.36,1-.73,1.55-1.11l.17-.14c.47-.37.94-.76,1.4-1.16l.15-.13c.49-.42.94-.86,1.4-1.3l.2-.19c.9-.92,1.75-1.87,2.55-2.86a1.56,1.56,0,0,1,.14-.19c.4-.51.79-1,1.15-1.55l0,0c.36-.53.71-1.07,1-1.61l.07-.11c.33-.55.65-1.1.95-1.67a.55.55,0,0,0,.08-.15,33.36,33.36,0,0,0,1.6-3.5,1.22,1.22,0,0,0,.07-.17,36.41,36.41,0,0,0,1.19-3.71s0-.05,0-.08c.17-.63.31-1.26.45-1.91a.24.24,0,0,1,0-.08c.24-1.3.41-2.59.52-3.88a.15.15,0,0,1,0-.07v-.07c0-.66.08-1.32.09-2h0c0-.64,0-1.28,0-1.92a1.34,1.34,0,0,0,0-.21c0-.62-.08-1.25-.14-1.87a3.31,3.31,0,0,1,0-.33c-.07-.63-.16-1.25-.26-1.88a34.69,34.69,0,0,0-3.69-10.63c-.12-.23-.25-.45-.39-.68l-.38-.67a34.3,34.3,0,0,0-7.23-8.46l0,0-.33-.26,62.89,36.3A19.62,19.62,0,0,1,235.4,159.48Z" transform="translate(-8.77 -9.01)"/></svg>